<svg width="35" height="36" viewBox="0 0 35 36" fill="none" xmlns="http://www.w3.org/2000/svg">
<g clip-path="url(#clip0_234_615)">
<path d="M24.3056 12.1667V9.2986C24.3056 8.40488 24.1296 7.51991 23.7875 6.69422C23.4455 5.86854 22.9442 5.1183 22.3123 4.48634C21.6803 3.85439 20.9301 3.3531 20.1044 3.01108C19.2787 2.66907 18.3937 2.49304 17.5 2.49304C16.6063 2.49304 15.7213 2.66907 14.8957 3.01108C14.07 3.3531 13.3197 3.85439 12.6878 4.48634C12.0558 5.1183 11.5545 5.86854 11.2125 6.69422C10.8705 7.51991 10.6945 8.40488 10.6945 9.2986V16.1042C10.6945 16.362 10.7969 16.6093 10.9792 16.7916C11.1616 16.9739 11.4088 17.0764 11.6667 17.0764C11.9245 17.0764 12.1718 16.9739 12.3542 16.7916C12.5365 16.6093 12.6389 16.362 12.6389 16.1042V14.1111H20.4167V12.1667H12.6389V9.2986C12.6389 8.00935 13.1511 6.77291 14.0627 5.86127C14.9743 4.94964 16.2108 4.43749 17.5 4.43749C18.7893 4.43749 20.0257 4.94964 20.9374 5.86127C21.849 6.77291 22.3611 8.00935 22.3611 9.2986V16.0555C22.3611 16.3134 22.4636 16.5607 22.6459 16.743C22.8282 16.9253 23.0755 17.0278 23.3334 17.0278C23.5912 17.0278 23.8385 16.9253 24.0208 16.743C24.2032 16.5607 24.3056 16.3134 24.3056 16.0555V14.1111H29.1667V31.6111H5.83336V14.1111H8.75003V12.1667H3.88892V31.6986C3.88892 32.1911 4.08456 32.6634 4.4328 33.0117C4.78105 33.3599 5.25337 33.5555 5.74586 33.5555H29.2542C29.7467 33.5555 30.219 33.3599 30.5673 33.0117C30.9155 32.6634 31.1111 32.1911 31.1111 31.6986V12.1667H24.3056Z" fill="white"/>
</g>
<defs>
<clipPath id="clip0_234_615">
<rect width="35" height="35" fill="white" transform="translate(0 0.5)"/>
</clipPath>
</defs>
</svg>
