<svg width="35" height="36" viewBox="0 0 35 36" fill="none" xmlns="http://www.w3.org/2000/svg">
<path d="M27.7083 30.7605C28.0951 30.7605 28.466 30.6068 28.7395 30.3333C29.013 30.0598 29.1666 29.6889 29.1666 29.3021V27.485C29.1725 23.393 23.3712 20.1875 17.5 20.1875C11.6287 20.1875 5.83331 23.393 5.83331 27.485V29.3021C5.83331 29.6889 5.98696 30.0598 6.26045 30.3333C6.53394 30.6068 6.90487 30.7605 7.29165 30.7605H27.7083ZM22.7558 10.4955C22.7558 11.1857 22.6199 11.8691 22.3557 12.5068C22.0916 13.1444 21.7045 13.7238 21.2164 14.2119C20.7284 14.6999 20.149 15.0871 19.5113 15.3512C18.8736 15.6153 18.1902 15.7513 17.5 15.7513C16.8098 15.7513 16.1263 15.6153 15.4887 15.3512C14.851 15.0871 14.2716 14.6999 13.7835 14.2119C13.2955 13.7238 12.9084 13.1444 12.6442 12.5068C12.3801 11.8691 12.2441 11.1857 12.2441 10.4955C12.2441 9.10152 12.7979 7.76468 13.7835 6.77902C14.7692 5.79336 16.106 5.23962 17.5 5.23962C18.8939 5.23962 20.2308 5.79336 21.2164 6.77902C22.2021 7.76468 22.7558 9.10152 22.7558 10.4955Z" stroke="white" stroke-width="2.5" stroke-linecap="round" stroke-linejoin="round"/>
</svg>
